<svg width="93" height="83" viewBox="0 0 93 83" fill="none" xmlns="http://www.w3.org/2000/svg">
<g clip-path="url(#clip0_717_2)">
<path d="M74.3426 62.6133C78.2538 68.1093 80.0971 71.0273 80.0971 74.071C80.0971 80.082 75.0947 82.9966 68.3557 82.9966C65.3851 82.9966 63.4676 82.9932 58.6214 80.7431C58.6214 80.7431 55.4813 78.1786 48.1329 78.442C40.716 78.1803 37.5741 80.7754 37.5741 80.7754C32.7278 83.0238 30.8788 83 27.9121 83C21.173 83 16.1669 80.0888 16.1669 74.0744C16.1669 71.0307 18.0159 68.1161 21.9252 62.6167C21.9252 62.6167 29.3155 51.6636 35.7194 46.5109C40.3466 42.7924 47.0932 42.806 47.0932 42.806H49.1745C49.1745 42.806 56.2163 42.789 60.5541 46.5109C66.76 51.8506 74.3426 62.615 74.3426 62.6133ZM31.6691 35.4814C38.7147 35.4814 44.4254 27.5381 44.4254 17.7407C44.4254 7.94328 38.7147 0 31.6691 0C24.6235 0 18.9127 7.94328 18.9127 17.7407C18.9127 27.5381 24.6235 35.4814 31.6691 35.4814ZM19.444 52.6629C24.6368 50.5233 25.8212 42.9369 22.0871 35.7176C18.3529 28.4983 11.1169 24.3788 5.92408 26.5167C0.731286 28.6546 -0.451232 36.2427 3.28103 43.462C7.0152 50.6813 14.2512 54.7991 19.444 52.6629ZM61.3273 35.4814C68.3729 35.4814 74.0855 27.5381 74.0855 17.7407C74.0855 7.94328 68.3729 0 61.3273 0C54.2817 0 48.5709 7.94328 48.5709 17.7407C48.5709 27.5381 54.2817 35.4814 61.3273 35.4814ZM87.0742 26.515C81.8795 24.3754 74.6453 28.4949 70.9112 35.7159C67.177 42.9369 68.3614 50.5233 73.5561 52.6629C78.7508 54.8008 85.9849 50.6813 89.7191 43.462C93.4533 36.2427 92.2689 28.6546 87.0742 26.515Z" fill="#030104"/>
</g>
<defs>
<clipPath id="clip0_717_2">
<rect width="93" height="83" fill="white"/>
</clipPath>
</defs>
</svg>
